<?xml version="1.0"?>
<svg version="1.1" xmlns="http://www.w3.org/2000/svg" width="400" height="200" style="border: dashed 2px #aaa"><path fill="#3290c7" d="M37.456,114.364c0.028,0.476-0.112,0.756-0.644,0.756l-2.268,0c-0.588,0-0.7-0.28-0.728-0.924l-0.392-11.368l-0.056,0l-4.76,11.788c-0.168,0.448-0.448,0.504-0.756,0.504l-0.98,0c-0.42,0-0.672-0.084-0.868-0.532l-5.292-11.76l-0.056,0l-0.252,11.592c0,0.616-0.252,0.7-0.756,0.7l-1.904,0c-0.532,0-0.756-0.196-0.728-0.728l0.7-17.892c0.028-0.588,0.224-0.756,0.672-0.756l1.652,0c0.56,0,0.756,0.196,0.952,0.616l6.468,13.832l0.056,0l5.908-13.832c0.168-0.42,0.392-0.616,0.896-0.616l1.652,0c0.448,0,0.616,0.168,0.644,0.616z M55.558,108.316c0,4.032-2.464,7.14-6.832,7.14c-4.564,0-6.664-3.08-6.664-7.168c0-4.032,2.464-7.112,6.832-7.112c4.564,0,6.664,3.024,6.664,7.14z M52.058,108.316c0-2.296-0.728-4.48-3.192-4.48c-2.492,0-3.304,2.156-3.304,4.396c0,2.296,0.7,4.564,3.192,4.564c2.464,0,3.304-2.184,3.304-4.48z M63.328,114.42c0,0.476-0.224,0.7-0.616,0.7l-2.128,0c-0.392,0-0.644-0.196-0.644-0.672l0-18.368c0-0.476,0.196-0.616,0.56-0.672l2.016-0.28c0.056,0,0.14-0.028,0.196-0.028c0.336,0,0.616,0.168,0.616,0.616l0,18.704z M80.394,108.288c0,0.672-0.224,0.812-0.924,0.812l-8.204,0c0.224,2.156,1.792,3.64,4.004,3.64c1.176,0,2.408-0.28,3.444-0.672c0.112-0.028,0.196-0.084,0.308-0.084c0.196,0,0.336,0.112,0.392,0.336l0.392,1.428c0.028,0.14,0.056,0.252,0.056,0.336c0,0.196-0.112,0.336-0.448,0.476c-1.372,0.616-3.248,0.896-4.704,0.896c-4.396,0-7-2.8-7-7.168c0-4.2,2.772-7.112,6.944-7.112c1.708,0,3.108,0.644,4.088,1.68c1.288,1.344,1.652,3.108,1.652,5.012l0,0.42z M77.062,106.888l0-0.308c-0.056-1.456-0.896-2.8-2.604-2.8c-1.82,0-2.912,1.456-3.136,3.108l5.74,0z"/><path fill="#051724" d="M103.86,96.444l-0.196,1.624c-0.056,0.476-0.364,0.588-0.868,0.588l-5.068,0l0,15.82c0,0.532-0.112,0.644-0.588,0.644l-2.464,0c-0.504,0-0.588-0.112-0.588-0.616l0-15.848l-5.236,0c-0.476,0-0.644-0.196-0.644-0.672l0-1.652c0-0.42,0.196-0.588,0.616-0.588l14.168,0c0.728,0,0.924,0.224,0.868,0.7z M120.058,108.316c0,4.032-2.464,7.14-6.832,7.14c-4.564,0-6.664-3.08-6.664-7.168c0-4.032,2.464-7.112,6.832-7.112c4.564,0,6.664,3.024,6.664,7.14z M116.558,108.316c0-2.296-0.728-4.48-3.192-4.48c-2.492,0-3.304,2.156-3.304,4.396c0,2.296,0.7,4.564,3.192,4.564c2.464,0,3.304-2.184,3.304-4.48z M136.508,114.336c0,0.588-0.168,0.784-0.728,0.784l-1.792,0c-0.364,0-0.644-0.196-0.672-0.56l-0.028-0.7c-1.288,1.036-2.828,1.596-4.452,1.596c-3.136,0-4.424-1.988-4.424-5.012l0-8.26c0-0.476,0.28-0.644,0.728-0.644l1.96,0c0.448,0,0.7,0.14,0.7,0.644l0,7.672c0,1.54,0.392,2.604,2.072,2.604c1.064,0,2.408-0.588,3.248-1.344l0-8.932c0-0.476,0.252-0.644,0.7-0.644l1.988,0c0.448,0,0.7,0.14,0.7,0.644l0,12.152z M149.346,101.652c0,0.084,0,0.168-0.028,0.252l-0.308,1.988c-0.028,0.252-0.168,0.364-0.392,0.364l-0.112,0c-0.224-0.056-0.504-0.084-0.756-0.084c-0.952,0-1.988,0.504-2.688,1.344l0,8.904c0,0.448-0.196,0.7-0.672,0.7l-2.044,0c-0.448,0-0.672-0.224-0.672-0.7l0-8.736l0-3.444c0-0.56,0.28-0.7,0.7-0.7l1.792,0c0.448,0,0.7,0.14,0.7,0.532l0.028,0.896c0.868-1.092,1.82-1.792,3.388-1.792c0.224,0,0.532,0.056,0.784,0.112c0.196,0.056,0.28,0.14,0.28,0.364z M162.044,111.116c0,2.94-2.548,4.34-5.404,4.34c-1.456,0-3.052-0.42-4.312-0.98c-0.252-0.112-0.336-0.28-0.336-0.448c0-0.084,0.028-0.168,0.056-0.252l0.448-1.428c0.084-0.28,0.224-0.392,0.392-0.392c0.084,0,0.168,0,0.308,0.056c1.232,0.504,2.548,0.868,3.528,0.868c1.232,0,2.072-0.56,2.072-1.484c0-0.784-0.532-1.204-1.68-1.652l-2.212-0.84c-1.596-0.588-2.884-1.82-2.884-3.724c0-2.744,2.576-4.004,5.068-4.004c1.344,0,2.66,0.224,4.06,0.84c0.224,0.112,0.336,0.224,0.336,0.392c0,0.084-0.028,0.168-0.056,0.28l-0.476,1.512c-0.056,0.196-0.196,0.308-0.392,0.308c-0.084,0-0.196-0.028-0.28-0.056c-0.924-0.364-2.128-0.672-3.024-0.672c-1.176,0-1.764,0.644-1.764,1.288c0,0.616,0.308,1.008,1.372,1.428l2.52,1.036c1.484,0.616,2.66,1.764,2.66,3.584z"/></svg>
