<?xml version="1.0"?>
<svg version="1.1" xmlns="http://www.w3.org/2000/svg" width="304" height="103" style="border: dashed 2px #aaa"><path fill="#32c7bf" d="M55.1,77.15c0.05,0.85-0.2,1.35-1.15,1.35l-4.05,0c-1.05,0-1.25-0.5-1.3-1.65l-0.7-20.3l-0.1,0l-8.5,21.05c-0.3,0.8-0.8,0.9-1.35,0.9l-1.75,0c-0.75,0-1.2-0.15-1.55-0.95l-9.45-21l-0.1,0l-0.45,20.7c0,1.1-0.45,1.25-1.35,1.25l-3.4,0c-0.95,0-1.35-0.35-1.3-1.3l1.25-31.95c0.05-1.05,0.4-1.35,1.2-1.35l2.95,0c1,0,1.35,0.35,1.7,1.1l11.55,24.7l0.1,0l10.55-24.7c0.3-0.75,0.7-1.1,1.6-1.1l2.95,0c0.8,0,1.1,0.3,1.15,1.1z M87.425,66.35c0,7.2-4.4,12.75-12.2,12.75c-8.15,0-11.9-5.5-11.9-12.8c0-7.2,4.4-12.7,12.2-12.7c8.15,0,11.9,5.4,11.9,12.75z M81.175,66.35c0-4.1-1.3-8-5.7-8c-4.45,0-5.9,3.85-5.9,7.85c0,4.1,1.25,8.15,5.7,8.15c4.4,0,5.9-3.9,5.9-8z M101.3,77.25c0,0.85-0.4,1.25-1.1,1.25l-3.8,0c-0.7,0-1.15-0.35-1.15-1.2l0-32.8c0-0.85,0.35-1.1,1-1.2l3.6-0.5c0.1,0,0.25-0.05,0.35-0.05c0.6,0,1.1,0.3,1.1,1.1l0,33.4z M131.775,66.3c0,1.2-0.4,1.45-1.65,1.45l-14.65,0c0.4,3.85,3.2,6.5,7.15,6.5c2.1,0,4.3-0.5,6.15-1.2c0.2-0.05,0.35-0.15,0.55-0.15c0.35,0,0.6,0.2,0.7,0.6l0.7,2.55c0.05,0.25,0.1,0.45,0.1,0.6c0,0.35-0.2,0.6-0.8,0.85c-2.45,1.1-5.8,1.6-8.4,1.6c-7.85,0-12.5-5-12.5-12.8c0-7.5,4.95-12.7,12.4-12.7c3.05,0,5.55,1.15,7.3,3c2.3,2.4,2.95,5.55,2.95,8.95l0,0.75z M125.825,63.8l0-0.55c-0.1-2.6-1.6-5-4.65-5c-3.25,0-5.2,2.6-5.6,5.55l10.25,0z"/><path fill="#" d="M172.61,44.515l-0.385,3.19c-0.11,0.935-0.715,1.155-1.705,1.155l-9.955,0l0,31.075c0,1.045-0.22,1.265-1.155,1.265l-4.84,0c-0.99,0-1.155-0.22-1.155-1.21l0-31.13l-10.285,0c-0.935,0-1.265-0.385-1.265-1.32l0-3.245c0-0.825,0.385-1.155,1.21-1.155l27.83,0c1.43,0,1.815,0.44,1.705,1.375z M204.4275,67.835c0,7.92-4.84,14.025-13.42,14.025c-8.965,0-13.09-6.05-13.09-14.08c0-7.92,4.84-13.97,13.42-13.97c8.965,0,13.09,5.94,13.09,14.025z M197.5525,67.835c0-4.51-1.43-8.8-6.27-8.8c-4.895,0-6.49,4.235-6.49,8.635c0,4.51,1.375,8.965,6.27,8.965c4.84,0,6.49-4.29,6.49-8.8z M236.74,79.66c0,1.155-0.33,1.54-1.43,1.54l-3.52,0c-0.715,0-1.265-0.385-1.32-1.1l-0.055-1.375c-2.53,2.035-5.555,3.135-8.745,3.135c-6.16,0-8.69-3.905-8.69-9.845l0-16.225c0-0.935,0.55-1.265,1.43-1.265l3.85,0c0.88,0,1.375,0.275,1.375,1.265l0,15.07c0,3.025,0.77,5.115,4.07,5.115c2.09,0,4.73-1.155,6.38-2.64l0-17.545c0-0.935,0.495-1.265,1.375-1.265l3.905,0c0.88,0,1.375,0.275,1.375,1.265l0,23.87z M261.9575,54.745c0,0.165,0,0.33-0.055,0.495l-0.605,3.905c-0.055,0.495-0.33,0.715-0.77,0.715l-0.22,0c-0.44-0.11-0.99-0.165-1.485-0.165c-1.87,0-3.905,0.99-5.28,2.64l0,17.49c0,0.88-0.385,1.375-1.32,1.375l-4.015,0c-0.88,0-1.32-0.44-1.32-1.375l0-17.16l0-6.765c0-1.1,0.55-1.375,1.375-1.375l3.52,0c0.88,0,1.375,0.275,1.375,1.045l0.055,1.76c1.705-2.145,3.575-3.52,6.655-3.52c0.44,0,1.045,0.11,1.54,0.22c0.385,0.11,0.55,0.275,0.55,0.715z M286.9,73.335c0,5.775-5.005,8.525-10.615,8.525c-2.86,0-5.995-0.825-8.47-1.925c-0.495-0.22-0.66-0.55-0.66-0.88c0-0.165,0.055-0.33,0.11-0.495l0.88-2.805c0.165-0.55,0.44-0.77,0.77-0.77c0.165,0,0.33,0,0.605,0.11c2.42,0.99,5.005,1.705,6.93,1.705c2.42,0,4.07-1.1,4.07-2.915c0-1.54-1.045-2.365-3.3-3.245l-4.345-1.65c-3.135-1.155-5.665-3.575-5.665-7.315c0-5.39,5.06-7.865,9.955-7.865c2.64,0,5.225,0.44,7.975,1.65c0.44,0.22,0.66,0.44,0.66,0.77c0,0.165-0.055,0.33-0.11,0.55l-0.935,2.97c-0.11,0.385-0.385,0.605-0.77,0.605c-0.165,0-0.385-0.055-0.55-0.11c-1.815-0.715-4.18-1.32-5.94-1.32c-2.31,0-3.465,1.265-3.465,2.53c0,1.21,0.605,1.98,2.695,2.805l4.95,2.035c2.915,1.21,5.225,3.465,5.225,7.04z"/></svg>
